<?xml version="1.0" encoding="utf-8"?><svg xmlns="http://www.w3.org/2000/svg" xmlns:xlink="http://www.w3.org/1999/xlink"><symbol viewBox="0 0 30 30" id="arrow" xmlns="http://www.w3.org/2000/svg"><path d="M8.196 30c-.462 0-.877-.169-1.2-.488a1.638 1.638 0 0 1 0-2.349l12.41-12.171L6.996 2.82c-.32-.313-.496-.73-.496-1.175S6.676.783 6.996.47C7.3.171 7.738 0 8.196 0c.458 0 .896.171 1.2.47l13.608 13.347a1.64 1.64 0 0 1 0 2.35L9.396 29.513a1.68 1.68 0 0 1-1.2.487z"/></symbol><symbol viewBox="0 0 8 12" id="arrow_small" xmlns="http://www.w3.org/2000/svg"><path d="M8 6v-.2L2.2 0 0 2.1 3.9 6H6zM5.9 6h-2L0 9.8 2.2 12 8 6.2V6z"/></symbol></svg>